<svg width="420" height="447" viewBox="0 0 420 447" fill="none" xmlns="http://www.w3.org/2000/svg">
<path d="M196.875 0H183.75V13.125H196.875V0Z" fill="#C5C5C5"/>
<path d="M210 0H196.875V13.125H210V0Z" fill="#F0F0F0"/>
<path d="M223.125 0H210V13.125H223.125V0Z" fill="#F0F0F0"/>
<path d="M236.25 0H223.125V13.125H236.25V0Z" fill="white"/>
<path d="M249.375 0H236.25V13.125H249.375V0Z" fill="#F0F0F0"/>
<path d="M262.5 0H249.375V13.125H262.5V0Z" fill="#F0F0F0"/>
<path d="M275.625 0H262.5V13.125H275.625V0Z" fill="white"/>
<path d="M288.75 0H275.625V13.125H288.75V0Z" fill="white"/>
<path d="M301.875 0H288.75V13.125H301.875V0Z" fill="#F0F0F0"/>
<path d="M315 0H301.875V13.125H315V0Z" fill="#F0F0F0"/>
<path d="M328.125 0H315V13.125H328.125V0Z" fill="white"/>
<path d="M341.25 0H328.125V13.125H341.25V0Z" fill="white"/>
<path d="M354.375 0H341.25V13.125H354.375V0Z" fill="#F0F0F0"/>
<path d="M367.5 0H354.375V13.125H367.5V0Z" fill="#F0F0F0"/>
<path d="M380.625 0H367.5V13.125H380.625V0Z" fill="white"/>
<path d="M393.75 0H380.625V13.125H393.75V0Z" fill="#C5C5C5"/>
<path d="M183.75 13.125H170.625V26.25H183.75V13.125Z" fill="#C5C5C5"/>
<path d="M196.875 13.125H183.75V26.25H196.875V13.125Z" fill="white"/>
<path d="M210 13.125H196.875V26.25H210V13.125Z" fill="#EBE8E8"/>
<path d="M223.125 13.125H210V26.25H223.125V13.125Z" fill="#EBE8E8"/>
<path d="M236.25 13.125H223.125V26.25H236.25V13.125Z" fill="#EBE8E8"/>
<path d="M249.375 13.125H236.25V26.25H249.375V13.125Z" fill="#EBE8E8"/>
<path d="M262.5 13.125H249.375V26.25H262.5V13.125Z" fill="#EBE8E8"/>
<path d="M275.625 13.125H262.5V26.25H275.625V13.125Z" fill="#EBE8E8"/>
<path d="M288.75 13.125H275.625V26.25H288.75V13.125Z" fill="#EBE8E8"/>
<path d="M301.875 13.125H288.75V26.25H301.875V13.125Z" fill="#EBE8E8"/>
<path d="M315 13.125H301.875V26.25H315V13.125Z" fill="#EBE8E8"/>
<path d="M328.125 13.125H315V26.25H328.125V13.125Z" fill="#EBE8E8"/>
<path d="M341.25 13.125H328.125V26.25H341.25V13.125Z" fill="#EBE8E8"/>
<path d="M354.375 13.125H341.25V26.25H354.375V13.125Z" fill="#EBE8E8"/>
<path d="M367.5 13.125H354.375V26.25H367.5V13.125Z" fill="#EBE8E8"/>
<path d="M380.625 13.125H367.5V26.25H380.625V13.125Z" fill="#EBE8E8"/>
<path d="M393.75 13.125H380.625V26.25H393.75V13.125Z" fill="white"/>
<path d="M406.875 13.125H393.75V26.25H406.875V13.125Z" fill="#C5C5C5"/>
<path d="M170.625 26.25H157.5V39.375H170.625V26.25Z" fill="#C5C5C5"/>
<path d="M183.75 26.25H170.625V39.375H183.75V26.25Z" fill="#F0F0F0"/>
<path d="M196.875 26.25H183.75V39.375H196.875V26.25Z" fill="#EBE8E8"/>
<path d="M210 26.25H196.875V39.375H210V26.25Z" fill="#EBE8E8"/>
<path d="M223.125 26.25H210V39.375H223.125V26.25Z" fill="#EBE8E8"/>
<path d="M236.25 26.25H223.125V39.375H236.25V26.25Z" fill="#EBE8E8"/>
<path d="M249.375 26.25H236.25V39.375H249.375V26.25Z" fill="#EBE8E8"/>
<path d="M262.5 26.25H249.375V39.375H262.5V26.25Z" fill="#EBE8E8"/>
<path d="M275.625 26.25H262.5V39.375H275.625V26.25Z" fill="#EBE8E8"/>
<path d="M288.75 26.25H275.625V39.375H288.75V26.25Z" fill="#EBE8E8"/>
<path d="M301.875 26.25H288.75V39.375H301.875V26.25Z" fill="#EBE8E8"/>
<path d="M315 26.25H301.875V39.375H315V26.25Z" fill="#EBE8E8"/>
<path d="M328.125 26.25H315V39.375H328.125V26.25Z" fill="#EBE8E8"/>
<path d="M341.25 26.25H328.125V39.375H341.25V26.25Z" fill="#EBE8E8"/>
<path d="M354.375 26.25H341.25V39.375H354.375V26.25Z" fill="#EBE8E8"/>
<path d="M367.5 26.25H354.375V39.375H367.5V26.25Z" fill="#EBE8E8"/>
<path d="M380.625 26.25H367.5V39.375H380.625V26.25Z" fill="#EBE8E8"/>
<path d="M393.75 26.25H380.625V39.375H393.75V26.25Z" fill="#EBE8E8"/>
<path d="M406.875 26.25H393.75V39.375H406.875V26.25Z" fill="#F0F0F0"/>
<path d="M420 26.25H406.875V39.375H420V26.25Z" fill="#C5C5C5"/>
<path d="M170.625 39.375H157.5V52.5H170.625V39.375Z" fill="#C5C5C5"/>
<path d="M183.75 39.375H170.625V52.5H183.75V39.375Z" fill="#F0F0F0"/>
<path d="M196.875 39.375H183.75V52.5H196.875V39.375Z" fill="#EBE8E8"/>
<path d="M210 39.375H196.875V52.5H210V39.375Z" fill="#EBE8E8"/>
<path d="M223.125 39.375H210V52.5H223.125V39.375Z" fill="#EBE8E8"/>
<path d="M236.25 39.375H223.125V52.5H236.25V39.375Z" fill="#EBE8E8"/>
<path d="M249.375 39.375H236.25V52.5H249.375V39.375Z" fill="#EBE8E8"/>
<path d="M262.5 39.375H249.375V52.5H262.5V39.375Z" fill="#EBE8E8"/>
<path d="M275.625 39.375H262.5V52.5H275.625V39.375Z" fill="#EBE8E8"/>
<path d="M288.75 39.375H275.625V52.5H288.75V39.375Z" fill="#EBE8E8"/>
<path d="M301.875 39.375H288.75V52.5H301.875V39.375Z" fill="#EBE8E8"/>
<path d="M315 39.375H301.875V52.5H315V39.375Z" fill="#EBE8E8"/>
<path d="M328.125 39.375H315V52.5H328.125V39.375Z" fill="#EBE8E8"/>
<path d="M341.25 39.375H328.125V52.5H341.25V39.375Z" fill="#EBE8E8"/>
<path d="M354.375 39.375H341.25V52.5H354.375V39.375Z" fill="#EBE8E8"/>
<path d="M367.5 39.375H354.375V52.5H367.5V39.375Z" fill="#EBE8E8"/>
<path d="M380.625 39.375H367.5V52.5H380.625V39.375Z" fill="#EBE8E8"/>
<path d="M393.75 39.375H380.625V52.5H393.75V39.375Z" fill="#EBE8E8"/>
<path d="M406.875 39.375H393.75V52.5H406.875V39.375Z" fill="#F0F0F0"/>
<path d="M420 39.375H406.875V52.5H420V39.375Z" fill="#C5C5C5"/>
<path d="M170.625 52.5H157.5V65.625H170.625V52.5Z" fill="#C5C5C5"/>
<path d="M183.75 52.5H170.625V65.625H183.75V52.5Z" fill="#EBE8E8"/>
<path d="M196.875 52.5H183.75V65.625H196.875V52.5Z" fill="#EBE8E8"/>
<path d="M210 52.5H196.875V65.625H210V52.5Z" fill="#EBE8E8"/>
<path d="M223.125 52.5H210V65.625H223.125V52.5Z" fill="#EBE8E8"/>
<path d="M236.25 52.5H223.125V65.625H236.25V52.5Z" fill="#EBE8E8"/>
<path d="M249.375 52.5H236.25V65.625H249.375V52.5Z" fill="#EBE8E8"/>
<path d="M262.5 52.5H249.375V65.625H262.5V52.5Z" fill="#EBE8E8"/>
<path d="M275.625 52.5H262.5V65.625H275.625V52.5Z" fill="#EBE8E8"/>
<path d="M288.75 52.5H275.625V65.625H288.75V52.5Z" fill="#EBE8E8"/>
<path d="M301.875 52.5H288.75V65.625H301.875V52.5Z" fill="#EBE8E8"/>
<path d="M315 52.5H301.875V65.625H315V52.5Z" fill="#EBE8E8"/>
<path d="M328.125 52.5H315V65.625H328.125V52.5Z" fill="#EBE8E8"/>
<path d="M341.25 52.5H328.125V65.625H341.25V52.5Z" fill="#EBE8E8"/>
<path d="M354.375 52.5H341.25V65.625H354.375V52.5Z" fill="#EBE8E8"/>
<path d="M367.5 52.5H354.375V65.625H367.5V52.5Z" fill="#EBE8E8"/>
<path d="M380.625 52.5H367.5V65.625H380.625V52.5Z" fill="#EBE8E8"/>
<path d="M393.75 52.5H380.625V65.625H393.75V52.5Z" fill="#EBE8E8"/>
<path d="M406.875 52.5H393.75V65.625H406.875V52.5Z" fill="#F0F0F0"/>
<path d="M420 52.5H406.875V65.625H420V52.5Z" fill="#C5C5C5"/>
<path d="M170.625 65.625H157.5V78.75H170.625V65.625Z" fill="#C5C5C5"/>
<path d="M183.75 65.625H170.625V78.75H183.75V65.625Z" fill="#EBE8E8"/>
<path d="M196.875 65.625H183.75V78.75H196.875V65.625Z" fill="#EBE8E8"/>
<path d="M210 65.625H196.875V78.75H210V65.625Z" fill="#EBE8E8"/>
<path d="M223.125 65.625H210V78.75H223.125V65.625Z" fill="#EBE8E8"/>
<path d="M236.25 65.625H223.125V78.75H236.25V65.625Z" fill="#EBE8E8"/>
<path d="M249.375 65.625H236.25V78.75H249.375V65.625Z" fill="#EBE8E8"/>
<path d="M262.5 65.625H249.375V78.75H262.5V65.625Z" fill="#EBE8E8"/>
<path d="M275.625 65.625H262.5V78.75H275.625V65.625Z" fill="#EBE8E8"/>
<path d="M288.75 65.625H275.625V78.75H288.75V65.625Z" fill="#EBE8E8"/>
<path d="M301.875 65.625H288.75V78.75H301.875V65.625Z" fill="#EBE8E8"/>
<path d="M315 65.625H301.875V78.75H315V65.625Z" fill="#EBE8E8"/>
<path d="M328.125 65.625H315V78.75H328.125V65.625Z" fill="#EBE8E8"/>
<path d="M341.25 65.625H328.125V78.75H341.25V65.625Z" fill="#EBE8E8"/>
<path d="M354.375 65.625H341.25V78.75H354.375V65.625Z" fill="#EBE8E8"/>
<path d="M367.5 65.625H354.375V78.75H367.5V65.625Z" fill="#EBE8E8"/>
<path d="M380.625 65.625H367.5V78.75H380.625V65.625Z" fill="#EBE8E8"/>
<path d="M393.75 65.625H380.625V78.75H393.75V65.625Z" fill="#EBE8E8"/>
<path d="M406.875 65.625H393.75V78.75H406.875V65.625Z" fill="#EBE8E8"/>
<path d="M420 65.625H406.875V78.75H420V65.625Z" fill="#C5C5C5"/>
<path d="M170.625 78.75H157.5V91.875H170.625V78.75Z" fill="#C5C5C5"/>
<path d="M183.75 78.75H170.625V91.875H183.75V78.75Z" fill="#EBE8E8"/>
<path d="M196.875 78.75H183.75V91.875H196.875V78.75Z" fill="#EBE8E8"/>
<path d="M210 78.75H196.875V91.875H210V78.75Z" fill="#EBE8E8"/>
<path d="M223.125 78.75H210V91.875H223.125V78.75Z" fill="#EBE8E8"/>
<path d="M236.25 78.75H223.125V91.875H236.25V78.75Z" fill="#EBE8E8"/>
<path d="M249.375 78.75H236.25V91.875H249.375V78.75Z" fill="#EBE8E8"/>
<path d="M262.5 78.75H249.375V91.875H262.5V78.75Z" fill="#EBE8E8"/>
<path d="M275.625 78.75H262.5V91.875H275.625V78.75Z" fill="#EBE8E8"/>
<path d="M288.75 78.75H275.625V91.875H288.75V78.75Z" fill="#EBE8E8"/>
<path d="M301.875 78.75H288.75V91.875H301.875V78.75Z" fill="#EBE8E8"/>
<path d="M315 78.75H301.875V91.875H315V78.75Z" fill="#EBE8E8"/>
<path d="M328.125 78.75H315V91.875H328.125V78.75Z" fill="#EBE8E8"/>
<path d="M341.25 78.75H328.125V91.875H341.25V78.75Z" fill="#EBE8E8"/>
<path d="M354.375 78.75H341.25V91.875H354.375V78.75Z" fill="#EBE8E8"/>
<path d="M367.5 78.75H354.375V91.875H367.5V78.75Z" fill="#EBE8E8"/>
<path d="M380.625 78.75H367.5V91.875H380.625V78.75Z" fill="#EBE8E8"/>
<path d="M393.75 78.75H380.625V91.875H393.75V78.75Z" fill="#EBE8E8"/>
<path d="M406.875 78.75H393.75V91.875H406.875V78.75Z" fill="#F0F0F0"/>
<path d="M420 78.75H406.875V91.875H420V78.75Z" fill="#C5C5C5"/>
<path d="M170.625 91.875H157.5V105H170.625V91.875Z" fill="#C5C5C5"/>
<path d="M183.75 91.875H170.625V105H183.75V91.875Z" fill="#EBE8E8"/>
<path d="M196.875 91.875H183.75V105H196.875V91.875Z" fill="#EBE8E8"/>
<path d="M210 91.875H196.875V105H210V91.875Z" fill="#EBE8E8"/>
<path d="M223.125 91.875H210V105H223.125V91.875Z" fill="#EBE8E8"/>
<path d="M236.25 91.875H223.125V105H236.25V91.875Z" fill="#EBE8E8"/>
<path d="M249.375 91.875H236.25V105H249.375V91.875Z" fill="#EBE8E8"/>
<path d="M262.5 91.875H249.375V105H262.5V91.875Z" fill="#EBE8E8"/>
<path d="M275.625 91.875H262.5V105H275.625V91.875Z" fill="#EBE8E8"/>
<path d="M288.75 91.875H275.625V105H288.75V91.875Z" fill="#EBE8E8"/>
<path d="M301.875 91.875H288.75V105H301.875V91.875Z" fill="#EBE8E8"/>
<path d="M315 91.875H301.875V105H315V91.875Z" fill="#EBE8E8"/>
<path d="M328.125 91.875H315V105H328.125V91.875Z" fill="#EBE8E8"/>
<path d="M341.25 91.875H328.125V105H341.25V91.875Z" fill="#EBE8E8"/>
<path d="M354.375 91.875H341.25V105H354.375V91.875Z" fill="#EBE8E8"/>
<path d="M367.5 91.875H354.375V105H367.5V91.875Z" fill="#EBE8E8"/>
<path d="M380.625 91.875H367.5V105H380.625V91.875Z" fill="#EBE8E8"/>
<path d="M393.75 91.875H380.625V105H393.75V91.875Z" fill="#EBE8E8"/>
<path d="M406.875 91.875H393.75V105H406.875V91.875Z" fill="#F0F0F0"/>
<path d="M420 91.875H406.875V105H420V91.875Z" fill="#C5C5C5"/>
<path d="M170.625 105H157.5V118.125H170.625V105Z" fill="#C5C5C5"/>
<path d="M183.75 105H170.625V118.125H183.75V105Z" fill="#EBE8E8"/>
<path d="M196.875 105H183.75V118.125H196.875V105Z" fill="#EBE8E8"/>
<path d="M210 105H196.875V118.125H210V105Z" fill="#EBE8E8"/>
<path d="M223.125 105H210V118.125H223.125V105Z" fill="#EBE8E8"/>
<path d="M236.25 105H223.125V118.125H236.25V105Z" fill="#EBE8E8"/>
<path d="M249.375 105H236.25V118.125H249.375V105Z" fill="#EBE8E8"/>
<path d="M262.5 105H249.375V118.125H262.5V105Z" fill="#EBE8E8"/>
<path d="M275.625 105H262.5V118.125H275.625V105Z" fill="#EBE8E8"/>
<path d="M288.75 105H275.625V118.125H288.75V105Z" fill="#EBE8E8"/>
<path d="M301.875 105H288.75V118.125H301.875V105Z" fill="#EBE8E8"/>
<path d="M315 105H301.875V118.125H315V105Z" fill="#EBE8E8"/>
<path d="M328.125 105H315V118.125H328.125V105Z" fill="#EBE8E8"/>
<path d="M341.25 105H328.125V118.125H341.25V105Z" fill="#EBE8E8"/>
<path d="M354.375 105H341.25V118.125H354.375V105Z" fill="#EBE8E8"/>
<path d="M367.5 105H354.375V118.125H367.5V105Z" fill="#EBE8E8"/>
<path d="M380.625 105H367.5V118.125H380.625V105Z" fill="#EBE8E8"/>
<path d="M393.75 105H380.625V118.125H393.75V105Z" fill="#EBE8E8"/>
<path d="M406.875 105H393.75V118.125H406.875V105Z" fill="#EBE8E8"/>
<path d="M420 105H406.875V118.125H420V105Z" fill="#C5C5C5"/>
<path d="M170.625 118.125H157.5V131.25H170.625V118.125Z" fill="#C5C5C5"/>
<path d="M183.75 118.125H170.625V131.25H183.75V118.125Z" fill="#EBE8E8"/>
<path d="M196.875 118.125H183.75V131.25H196.875V118.125Z" fill="#EBE8E8"/>
<path d="M210 118.125H196.875V131.25H210V118.125Z" fill="#EBE8E8"/>
<path d="M223.125 118.125H210V131.25H223.125V118.125Z" fill="#EBE8E8"/>
<path d="M236.25 118.125H223.125V131.25H236.25V118.125Z" fill="#EBE8E8"/>
<path d="M249.375 118.125H236.25V131.25H249.375V118.125Z" fill="#EBE8E8"/>
<path d="M262.5 118.125H249.375V131.25H262.5V118.125Z" fill="#EBE8E8"/>
<path d="M275.625 118.125H262.5V131.25H275.625V118.125Z" fill="#EBE8E8"/>
<path d="M288.75 118.125H275.625V131.25H288.75V118.125Z" fill="#EBE8E8"/>
<path d="M301.875 118.125H288.75V131.25H301.875V118.125Z" fill="#EBE8E8"/>
<path d="M315 118.125H301.875V131.25H315V118.125Z" fill="#EBE8E8"/>
<path d="M328.125 118.125H315V131.25H328.125V118.125Z" fill="#EBE8E8"/>
<path d="M341.25 118.125H328.125V131.25H341.25V118.125Z" fill="#EBE8E8"/>
<path d="M354.375 118.125H341.25V131.25H354.375V118.125Z" fill="#EBE8E8"/>
<path d="M367.5 118.125H354.375V131.25H367.5V118.125Z" fill="#EBE8E8"/>
<path d="M380.625 118.125H367.5V131.25H380.625V118.125Z" fill="#EBE8E8"/>
<path d="M393.75 118.125H380.625V131.25H393.75V118.125Z" fill="#EBE8E8"/>
<path d="M406.875 118.125H393.75V131.25H406.875V118.125Z" fill="#EBE8E8"/>
<path d="M420 118.125H406.875V131.25H420V118.125Z" fill="#C5C5C5"/>
<path d="M170.625 131.25H157.5V144.375H170.625V131.25Z" fill="#C5C5C5"/>
<path d="M183.75 131.25H170.625V144.375H183.75V131.25Z" fill="#EBE8E8"/>
<path d="M196.875 131.25H183.75V144.375H196.875V131.25Z" fill="#EBE8E8"/>
<path d="M210 131.25H196.875V144.375H210V131.25Z" fill="#EBE8E8"/>
<path d="M223.125 131.25H210V144.375H223.125V131.25Z" fill="#EBE8E8"/>
<path d="M236.25 131.25H223.125V144.375H236.25V131.25Z" fill="#EBE8E8"/>
<path d="M249.375 131.25H236.25V144.375H249.375V131.25Z" fill="#EBE8E8"/>
<path d="M262.5 131.25H249.375V144.375H262.5V131.25Z" fill="#EBE8E8"/>
<path d="M275.625 131.25H262.5V144.375H275.625V131.25Z" fill="#EBE8E8"/>
<path d="M288.75 131.25H275.625V144.375H288.75V131.25Z" fill="#EBE8E8"/>
<path d="M301.875 131.25H288.75V144.375H301.875V131.25Z" fill="#EBE8E8"/>
<path d="M315 131.25H301.875V144.375H315V131.25Z" fill="#EBE8E8"/>
<path d="M328.125 131.25H315V144.375H328.125V131.25Z" fill="#EBE8E8"/>
<path d="M341.25 131.25H328.125V144.375H341.25V131.25Z" fill="#EBE8E8"/>
<path d="M354.375 131.25H341.25V144.375H354.375V131.25Z" fill="#EBE8E8"/>
<path d="M367.5 131.25H354.375V144.375H367.5V131.25Z" fill="#EBE8E8"/>
<path d="M380.625 131.25H367.5V144.375H380.625V131.25Z" fill="#EBE8E8"/>
<path d="M393.75 131.25H380.625V144.375H393.75V131.25Z" fill="#EBE8E8"/>
<path d="M406.875 131.25H393.75V144.375H406.875V131.25Z" fill="#F0F0F0"/>
<path d="M420 131.25H406.875V144.375H420V131.25Z" fill="#C5C5C5"/>
<path d="M170.625 144.375H157.5V157.5H170.625V144.375Z" fill="#C5C5C5"/>
<path d="M183.75 144.375H170.625V157.5H183.75V144.375Z" fill="#EBE8E8"/>
<path d="M196.875 144.375H183.75V157.5H196.875V144.375Z" fill="#EBE8E8"/>
<path d="M210 144.375H196.875V157.5H210V144.375Z" fill="#EBE8E8"/>
<path d="M223.125 144.375H210V157.5H223.125V144.375Z" fill="#EBE8E8"/>
<path d="M236.25 144.375H223.125V157.5H236.25V144.375Z" fill="#EBE8E8"/>
<path d="M249.375 144.375H236.25V157.5H249.375V144.375Z" fill="#EBE8E8"/>
<path d="M262.5 144.375H249.375V157.5H262.5V144.375Z" fill="#EBE8E8"/>
<path d="M275.625 144.375H262.5V157.5H275.625V144.375Z" fill="#EBE8E8"/>
<path d="M288.75 144.375H275.625V157.5H288.75V144.375Z" fill="#EBE8E8"/>
<path d="M301.875 144.375H288.75V157.5H301.875V144.375Z" fill="#EBE8E8"/>
<path d="M315 144.375H301.875V157.5H315V144.375Z" fill="#EBE8E8"/>
<path d="M328.125 144.375H315V157.5H328.125V144.375Z" fill="#EBE8E8"/>
<path d="M341.25 144.375H328.125V157.5H341.25V144.375Z" fill="#282222"/>
<path d="M354.375 144.375H341.25V157.5H354.375V144.375Z" fill="#282222"/>
<path d="M367.5 144.375H354.375V157.5H367.5V144.375Z" fill="#EBE8E8"/>
<path d="M380.625 144.375H367.5V157.5H380.625V144.375Z" fill="#EBE8E8"/>
<path d="M393.75 144.375H380.625V157.5H393.75V144.375Z" fill="#EBE8E8"/>
<path d="M406.875 144.375H393.75V157.5H406.875V144.375Z" fill="#EBE8E8"/>
<path d="M420 144.375H406.875V157.5H420V144.375Z" fill="#C5C5C5"/>
<path d="M170.625 157.5H157.5V170.625H170.625V157.5Z" fill="#C5C5C5"/>
<path d="M183.75 157.5H170.625V170.625H183.75V157.5Z" fill="#EBE8E8"/>
<path d="M196.875 157.5H183.75V170.625H196.875V157.5Z" fill="#EBE8E8"/>
<path d="M210 157.5H196.875V170.625H210V157.5Z" fill="#EBE8E8"/>
<path d="M223.125 157.5H210V170.625H223.125V157.5Z" fill="#EBE8E8"/>
<path d="M236.25 157.5H223.125V170.625H236.25V157.5Z" fill="#EBE8E8"/>
<path d="M249.375 157.5H236.25V170.625H249.375V157.5Z" fill="#EBE8E8"/>
<path d="M262.5 157.5H249.375V170.625H262.5V157.5Z" fill="#EBE8E8"/>
<path d="M275.625 157.5H262.5V170.625H275.625V157.5Z" fill="#EBE8E8"/>
<path d="M288.75 157.5H275.625V170.625H288.75V157.5Z" fill="#EBE8E8"/>
<path d="M301.875 157.5H288.75V170.625H301.875V157.5Z" fill="#EBE8E8"/>
<path d="M315 157.5H301.875V170.625H315V157.5Z" fill="#EBE8E8"/>
<path d="M328.125 157.5H315V170.625H328.125V157.5Z" fill="#EBE8E8"/>
<path d="M341.25 157.5H328.125V170.625H341.25V157.5Z" fill="#282222"/>
<path d="M354.375 157.5H341.25V170.625H354.375V157.5Z" fill="#282222"/>
<path d="M367.5 157.5H354.375V170.625H367.5V157.5Z" fill="#EBE8E8"/>
<path d="M380.625 157.5H367.5V170.625H380.625V157.5Z" fill="#EBE8E8"/>
<path d="M393.75 157.5H380.625V170.625H393.75V157.5Z" fill="#EBE8E8"/>
<path d="M406.875 157.5H393.75V170.625H406.875V157.5Z" fill="#EBE8E8"/>
<path d="M420 157.5H406.875V170.625H420V157.5Z" fill="#C5C5C5"/>
<path d="M39.375 170.625H26.25V183.75H39.375V170.625Z" fill="#C5C5C5"/>
<path d="M52.5 170.625H39.375V183.75H52.5V170.625Z" fill="#F0F0F0"/>
<path d="M65.625 170.625H52.5V183.75H65.625V170.625Z" fill="white"/>
<path d="M78.75 170.625H65.625V183.75H78.75V170.625Z" fill="white"/>
<path d="M91.875 170.625H78.75V183.75H91.875V170.625Z" fill="#F0F0F0"/>
<path d="M105 170.625H91.875V183.75H105V170.625Z" fill="#F0F0F0"/>
<path d="M118.125 170.625H105V183.75H118.125V170.625Z" fill="white"/>
<path d="M131.25 170.625H118.125V183.75H131.25V170.625Z" fill="white"/>
<path d="M144.375 170.625H131.25V183.75H144.375V170.625Z" fill="#F0F0F0"/>
<path d="M157.5 170.625H144.375V183.75H157.5V170.625Z" fill="#F0F0F0"/>
<path d="M170.625 170.625H157.5V183.75H170.625V170.625Z" fill="#EBE8E8"/>
<path d="M183.75 170.625H170.625V183.75H183.75V170.625Z" fill="#EBE8E8"/>
<path d="M196.875 170.625H183.75V183.75H196.875V170.625Z" fill="#EBE8E8"/>
<path d="M210 170.625H196.875V183.75H210V170.625Z" fill="#EBE8E8"/>
<path d="M223.125 170.625H210V183.75H223.125V170.625Z" fill="#EBE8E8"/>
<path d="M236.25 170.625H223.125V183.75H236.25V170.625Z" fill="#EBE8E8"/>
<path d="M249.375 170.625H236.25V183.75H249.375V170.625Z" fill="#EBE8E8"/>
<path d="M262.5 170.625H249.375V183.75H262.5V170.625Z" fill="#EBE8E8"/>
<path d="M275.625 170.625H262.5V183.75H275.625V170.625Z" fill="#EBE8E8"/>
<path d="M288.75 170.625H275.625V183.75H288.75V170.625Z" fill="#EBE8E8"/>
<path d="M301.875 170.625H288.75V183.75H301.875V170.625Z" fill="#EBE8E8"/>
<path d="M315 170.625H301.875V183.75H315V170.625Z" fill="#EBE8E8"/>
<path d="M328.125 170.625H315V183.75H328.125V170.625Z" fill="#EBE8E8"/>
<path d="M341.25 170.625H328.125V183.75H341.25V170.625Z" fill="#282222"/>
<path d="M354.375 170.625H341.25V183.75H354.375V170.625Z" fill="#282222"/>
<path d="M367.5 170.625H354.375V183.75H367.5V170.625Z" fill="#EBE8E8"/>
<path d="M380.625 170.625H367.5V183.75H380.625V170.625Z" fill="#EBE8E8"/>
<path d="M393.75 170.625H380.625V183.75H393.75V170.625Z" fill="#EBE8E8"/>
<path d="M406.875 170.625H393.75V183.75H406.875V170.625Z" fill="#F0F0F0"/>
<path d="M420 170.625H406.875V183.75H420V170.625Z" fill="#C5C5C5"/>
<path d="M26.25 183.75H13.125V196.875H26.25V183.75Z" fill="#C5C5C5"/>
<path d="M39.375 183.75H26.25V196.875H39.375V183.75Z" fill="#F0F0F0"/>
<path d="M52.5 183.75H39.375V196.875H52.5V183.75Z" fill="#EBE8E8"/>
<path d="M65.625 183.75H52.5V196.875H65.625V183.75Z" fill="#EBE8E8"/>
<path d="M78.75 183.75H65.625V196.875H78.75V183.75Z" fill="#EBE8E8"/>
<path d="M91.875 183.75H78.75V196.875H91.875V183.75Z" fill="#EBE8E8"/>
<path d="M105 183.75H91.875V196.875H105V183.75Z" fill="#EBE8E8"/>
<path d="M118.125 183.75H105V196.875H118.125V183.75Z" fill="#EBE8E8"/>
<path d="M131.25 183.75H118.125V196.875H131.25V183.75Z" fill="#EBE8E8"/>
<path d="M144.375 183.75H131.25V196.875H144.375V183.75Z" fill="#EBE8E8"/>
<path d="M157.5 183.75H144.375V196.875H157.5V183.75Z" fill="#EBE8E8"/>
<path d="M170.625 183.75H157.5V196.875H170.625V183.75Z" fill="#EBE8E8"/>
<path d="M183.75 183.75H170.625V196.875H183.75V183.75Z" fill="#EBE8E8"/>
<path d="M196.875 183.75H183.75V196.875H196.875V183.75Z" fill="#EBE8E8"/>
<path d="M210 183.75H196.875V196.875H210V183.75Z" fill="#EBE8E8"/>
<path d="M223.125 183.75H210V196.875H223.125V183.75Z" fill="#EBE8E8"/>
<path d="M236.25 183.75H223.125V196.875H236.25V183.75Z" fill="#EBE8E8"/>
<path d="M249.375 183.75H236.25V196.875H249.375V183.75Z" fill="#EBE8E8"/>
<path d="M262.5 183.75H249.375V196.875H262.5V183.75Z" fill="#EBE8E8"/>
<path d="M275.625 183.75H262.5V196.875H275.625V183.75Z" fill="#EBE8E8"/>
<path d="M288.75 183.75H275.625V196.875H288.75V183.75Z" fill="#EBE8E8"/>
<path d="M301.875 183.75H288.75V196.875H301.875V183.75Z" fill="#EBE8E8"/>
<path d="M315 183.75H301.875V196.875H315V183.75Z" fill="#EBE8E8"/>
<path d="M328.125 183.75H315V196.875H328.125V183.75Z" fill="#EBE8E8"/>
<path d="M341.25 183.75H328.125V196.875H341.25V183.75Z" fill="#282222"/>
<path d="M354.375 183.75H341.25V196.875H354.375V183.75Z" fill="#282222"/>
<path d="M367.5 183.75H354.375V196.875H367.5V183.75Z" fill="#EBE8E8"/>
<path d="M380.625 183.75H367.5V196.875H380.625V183.75Z" fill="#EBE8E8"/>
<path d="M393.75 183.75H380.625V196.875H393.75V183.75Z" fill="#EBE8E8"/>
<path d="M406.875 183.75H393.75V196.875H406.875V183.75Z" fill="#EBE8E8"/>
<path d="M420 183.75H406.875V196.875H420V183.75Z" fill="#C5C5C5"/>
<path d="M13.125 196.875H0V210H13.125V196.875Z" fill="#C5C5C5"/>
<path d="M26.25 196.875H13.125V210H26.25V196.875Z" fill="#F0F0F0"/>
<path d="M39.375 196.875H26.25V210H39.375V196.875Z" fill="#EBE8E8"/>
<path d="M52.5 196.875H39.375V210H52.5V196.875Z" fill="#EBE8E8"/>
<path d="M65.625 196.875H52.5V210H65.625V196.875Z" fill="#EBE8E8"/>
<path d="M78.75 196.875H65.625V210H78.75V196.875Z" fill="#EBE8E8"/>
<path d="M91.875 196.875H78.75V210H91.875V196.875Z" fill="#EBE8E8"/>
<path d="M105 196.875H91.875V210H105V196.875Z" fill="#EBE8E8"/>
<path d="M118.125 196.875H105V210H118.125V196.875Z" fill="#EBE8E8"/>
<path d="M131.25 196.875H118.125V210H131.25V196.875Z" fill="#EBE8E8"/>
<path d="M144.375 196.875H131.25V210H144.375V196.875Z" fill="#EBE8E8"/>
<path d="M157.5 196.875H144.375V210H157.5V196.875Z" fill="#EBE8E8"/>
<path d="M170.625 196.875H157.5V210H170.625V196.875Z" fill="#EBE8E8"/>
<path d="M183.75 196.875H170.625V210H183.75V196.875Z" fill="#EBE8E8"/>
<path d="M196.875 196.875H183.75V210H196.875V196.875Z" fill="#EBE8E8"/>
<path d="M210 196.875H196.875V210H210V196.875Z" fill="#EBE8E8"/>
<path d="M223.125 196.875H210V210H223.125V196.875Z" fill="#EBE8E8"/>
<path d="M236.25 196.875H223.125V210H236.25V196.875Z" fill="#EBE8E8"/>
<path d="M249.375 196.875H236.25V210H249.375V196.875Z" fill="#EBE8E8"/>
<path d="M262.5 196.875H249.375V210H262.5V196.875Z" fill="#EBE8E8"/>
<path d="M275.625 196.875H262.5V210H275.625V196.875Z" fill="#EBE8E8"/>
<path d="M288.75 196.875H275.625V210H288.75V196.875Z" fill="#EBE8E8"/>
<path d="M301.875 196.875H288.75V210H301.875V196.875Z" fill="#EBE8E8"/>
<path d="M315 196.875H301.875V210H315V196.875Z" fill="#EBE8E8"/>
<path d="M328.125 196.875H315V210H328.125V196.875Z" fill="#EBE8E8"/>
<path d="M341.25 196.875H328.125V210H341.25V196.875Z" fill="#282222"/>
<path d="M354.375 196.875H341.25V210H354.375V196.875Z" fill="#282222"/>
<path d="M367.5 196.875H354.375V210H367.5V196.875Z" fill="#EBE8E8"/>
<path d="M380.625 196.875H367.5V210H380.625V196.875Z" fill="#EBE8E8"/>
<path d="M393.75 196.875H380.625V210H393.75V196.875Z" fill="#EBE8E8"/>
<path d="M406.875 196.875H393.75V210H406.875V196.875Z" fill="#EBE8E8"/>
<path d="M420 196.875H406.875V210H420V196.875Z" fill="#C5C5C5"/>
<path d="M13.125 210H0V223.125H13.125V210Z" fill="#C5C5C5"/>
<path d="M26.25 210H13.125V223.125H26.25V210Z" fill="#EBE8E8"/>
<path d="M39.375 210H26.25V223.125H39.375V210Z" fill="#EBE8E8"/>
<path d="M52.5 210H39.375V223.125H52.5V210Z" fill="#EBE8E8"/>
<path d="M65.625 210H52.5V223.125H65.625V210Z" fill="#EBE8E8"/>
<path d="M78.75 210H65.625V223.125H78.75V210Z" fill="#EBE8E8"/>
<path d="M91.875 210H78.75V223.125H91.875V210Z" fill="#EBE8E8"/>
<path d="M105 210H91.875V223.125H105V210Z" fill="#EBE8E8"/>
<path d="M118.125 210H105V223.125H118.125V210Z" fill="#EBE8E8"/>
<path d="M131.25 210H118.125V223.125H131.25V210Z" fill="#EBE8E8"/>
<path d="M144.375 210H131.25V223.125H144.375V210Z" fill="#EBE8E8"/>
<path d="M157.5 210H144.375V223.125H157.5V210Z" fill="#EBE8E8"/>
<path d="M170.625 210H157.5V223.125H170.625V210Z" fill="#EBE8E8"/>
<path d="M183.75 210H170.625V223.125H183.75V210Z" fill="#EBE8E8"/>
<path d="M196.875 210H183.75V223.125H196.875V210Z" fill="#EBE8E8"/>
<path d="M210 210H196.875V223.125H210V210Z" fill="#EBE8E8"/>
<path d="M223.125 210H210V223.125H223.125V210Z" fill="#EBE8E8"/>
<path d="M236.25 210H223.125V223.125H236.25V210Z" fill="#EBE8E8"/>
<path d="M249.375 210H236.25V223.125H249.375V210Z" fill="#EBE8E8"/>
<path d="M262.5 210H249.375V223.125H262.5V210Z" fill="#EBE8E8"/>
<path d="M275.625 210H262.5V223.125H275.625V210Z" fill="#EBE8E8"/>
<path d="M288.75 210H275.625V223.125H288.75V210Z" fill="#EBE8E8"/>
<path d="M301.875 210H288.75V223.125H301.875V210Z" fill="#EBE8E8"/>
<path d="M315 210H301.875V223.125H315V210Z" fill="#EBE8E8"/>
<path d="M328.125 210H315V223.125H328.125V210Z" fill="#EBE8E8"/>
<path d="M341.25 210H328.125V223.125H341.25V210Z" fill="#282222"/>
<path d="M354.375 210H341.25V223.125H354.375V210Z" fill="#282222"/>
<path d="M367.5 210H354.375V223.125H367.5V210Z" fill="#EBE8E8"/>
<path d="M380.625 210H367.5V223.125H380.625V210Z" fill="#EBE8E8"/>
<path d="M393.75 210H380.625V223.125H393.75V210Z" fill="#EBE8E8"/>
<path d="M406.875 210H393.75V223.125H406.875V210Z" fill="#F0F0F0"/>
<path d="M420 210H406.875V223.125H420V210Z" fill="#C5C5C5"/>
<path d="M13.125 223.125H0V236.25H13.125V223.125Z" fill="#C5C5C5"/>
<path d="M26.25 223.125H13.125V236.25H26.25V223.125Z" fill="#F0F0F0"/>
<path d="M39.375 223.125H26.25V236.25H39.375V223.125Z" fill="#EBE8E8"/>
<path d="M52.5 223.125H39.375V236.25H52.5V223.125Z" fill="#EBE8E8"/>
<path d="M65.625 223.125H52.5V236.25H65.625V223.125Z" fill="#EBE8E8"/>
<path d="M78.75 223.125H65.625V236.25H78.75V223.125Z" fill="#EBE8E8"/>
<path d="M91.875 223.125H78.75V236.25H91.875V223.125Z" fill="#EBE8E8"/>
<path d="M105 223.125H91.875V236.25H105V223.125Z" fill="#EBE8E8"/>
<path d="M118.125 223.125H105V236.25H118.125V223.125Z" fill="#EBE8E8"/>
<path d="M131.25 223.125H118.125V236.25H131.25V223.125Z" fill="#EBE8E8"/>
<path d="M144.375 223.125H131.25V236.25H144.375V223.125Z" fill="#EBE8E8"/>
<path d="M157.5 223.125H144.375V236.25H157.5V223.125Z" fill="#EBE8E8"/>
<path d="M170.625 223.125H157.5V236.25H170.625V223.125Z" fill="#EBE8E8"/>
<path d="M183.75 223.125H170.625V236.25H183.75V223.125Z" fill="#EBE8E8"/>
<path d="M196.875 223.125H183.75V236.25H196.875V223.125Z" fill="#EBE8E8"/>
<path d="M210 223.125H196.875V236.25H210V223.125Z" fill="#EBE8E8"/>
<path d="M223.125 223.125H210V236.25H223.125V223.125Z" fill="#EBE8E8"/>
<path d="M236.25 223.125H223.125V236.25H236.25V223.125Z" fill="#EBE8E8"/>
<path d="M249.375 223.125H236.25V236.25H249.375V223.125Z" fill="#EBE8E8"/>
<path d="M262.5 223.125H249.375V236.25H262.5V223.125Z" fill="#EBE8E8"/>
<path d="M275.625 223.125H262.5V236.25H275.625V223.125Z" fill="#EBE8E8"/>
<path d="M288.75 223.125H275.625V236.25H288.75V223.125Z" fill="#EBE8E8"/>
<path d="M301.875 223.125H288.75V236.25H301.875V223.125Z" fill="#EBE8E8"/>
<path d="M315 223.125H301.875V236.25H315V223.125Z" fill="#EBE8E8"/>
<path d="M328.125 223.125H315V236.25H328.125V223.125Z" fill="#EBE8E8"/>
<path d="M341.25 223.125H328.125V236.25H341.25V223.125Z" fill="#282222"/>
<path d="M354.375 223.125H341.25V236.25H354.375V223.125Z" fill="#282222"/>
<path d="M367.5 223.125H354.375V236.25H367.5V223.125Z" fill="#EBE8E8"/>
<path d="M380.625 223.125H367.5V236.25H380.625V223.125Z" fill="#EBE8E8"/>
<path d="M393.75 223.125H380.625V236.25H393.75V223.125Z" fill="#EBE8E8"/>
<path d="M406.875 223.125H393.75V236.25H406.875V223.125Z" fill="#F0F0F0"/>
<path d="M420 223.125H406.875V236.25H420V223.125Z" fill="#C5C5C5"/>
<path d="M13.125 236.25H0V249.375H13.125V236.25Z" fill="#C5C5C5"/>
<path d="M26.25 236.25H13.125V249.375H26.25V236.25Z" fill="#F0F0F0"/>
<path d="M39.375 236.25H26.25V249.375H39.375V236.25Z" fill="#EBE8E8"/>
<path d="M52.5 236.25H39.375V249.375H52.5V236.25Z" fill="#EBE8E8"/>
<path d="M65.625 236.25H52.5V249.375H65.625V236.25Z" fill="#EBE8E8"/>
<path d="M78.75 236.25H65.625V249.375H78.75V236.25Z" fill="#EBE8E8"/>
<path d="M91.875 236.25H78.75V249.375H91.875V236.25Z" fill="#EBE8E8"/>
<path d="M105 236.25H91.875V249.375H105V236.25Z" fill="#EBE8E8"/>
<path d="M118.125 236.25H105V249.375H118.125V236.25Z" fill="#EBE8E8"/>
<path d="M131.25 236.25H118.125V249.375H131.25V236.25Z" fill="#EBE8E8"/>
<path d="M144.375 236.25H131.25V249.375H144.375V236.25Z" fill="#EBE8E8"/>
<path d="M157.5 236.25H144.375V249.375H157.5V236.25Z" fill="#EBE8E8"/>
<path d="M170.625 236.25H157.5V249.375H170.625V236.25Z" fill="#EBE8E8"/>
<path d="M183.75 236.25H170.625V249.375H183.75V236.25Z" fill="#EBE8E8"/>
<path d="M196.875 236.25H183.75V249.375H196.875V236.25Z" fill="#EBE8E8"/>
<path d="M210 236.25H196.875V249.375H210V236.25Z" fill="#EBE8E8"/>
<path d="M223.125 236.25H210V249.375H223.125V236.25Z" fill="#EBE8E8"/>
<path d="M236.25 236.25H223.125V249.375H236.25V236.25Z" fill="#EBE8E8"/>
<path d="M249.375 236.25H236.25V249.375H249.375V236.25Z" fill="#EBE8E8"/>
<path d="M262.5 236.25H249.375V249.375H262.5V236.25Z" fill="#EBE8E8"/>
<path d="M275.625 236.25H262.5V249.375H275.625V236.25Z" fill="#EBE8E8"/>
<path d="M288.75 236.25H275.625V249.375H288.75V236.25Z" fill="#EBE8E8"/>
<path d="M301.875 236.25H288.75V249.375H301.875V236.25Z" fill="#EBE8E8"/>
<path d="M315 236.25H301.875V249.375H315V236.25Z" fill="#EBE8E8"/>
<path d="M328.125 236.25H315V249.375H328.125V236.25Z" fill="#EBE8E8"/>
<path d="M341.25 236.25H328.125V249.375H341.25V236.25Z" fill="#282222"/>
<path d="M354.375 236.25H341.25V249.375H354.375V236.25Z" fill="#282222"/>
<path d="M367.5 236.25H354.375V249.375H367.5V236.25Z" fill="#EBE8E8"/>
<path d="M380.625 236.25H367.5V249.375H380.625V236.25Z" fill="#EBE8E8"/>
<path d="M393.75 236.25H380.625V249.375H393.75V236.25Z" fill="#EBE8E8"/>
<path d="M406.875 236.25H393.75V249.375H406.875V236.25Z" fill="#F0F0F0"/>
<path d="M420 236.25H406.875V249.375H420V236.25Z" fill="#C5C5C5"/>
<path d="M13.125 249.375H0V262.5H13.125V249.375Z" fill="#C5C5C5"/>
<path d="M26.25 249.375H13.125V262.5H26.25V249.375Z" fill="#EBE8E8"/>
<path d="M39.375 249.375H26.25V262.5H39.375V249.375Z" fill="#EBE8E8"/>
<path d="M52.5 249.375H39.375V262.5H52.5V249.375Z" fill="#EBE8E8"/>
<path d="M65.625 249.375H52.5V262.5H65.625V249.375Z" fill="#EBE8E8"/>
<path d="M78.75 249.375H65.625V262.5H78.75V249.375Z" fill="#EBE8E8"/>
<path d="M91.875 249.375H78.75V262.5H91.875V249.375Z" fill="#EBE8E8"/>
<path d="M105 249.375H91.875V262.5H105V249.375Z" fill="#EBE8E8"/>
<path d="M118.125 249.375H105V262.5H118.125V249.375Z" fill="#EBE8E8"/>
<path d="M131.25 249.375H118.125V262.5H131.25V249.375Z" fill="#EBE8E8"/>
<path d="M144.375 249.375H131.25V262.5H144.375V249.375Z" fill="#EBE8E8"/>
<path d="M157.5 249.375H144.375V262.5H157.5V249.375Z" fill="#EBE8E8"/>
<path d="M170.625 249.375H157.5V262.5H170.625V249.375Z" fill="#EBE8E8"/>
<path d="M183.75 249.375H170.625V262.5H183.75V249.375Z" fill="#EBE8E8"/>
<path d="M196.875 249.375H183.75V262.5H196.875V249.375Z" fill="#EBE8E8"/>
<path d="M210 249.375H196.875V262.5H210V249.375Z" fill="#EBE8E8"/>
<path d="M223.125 249.375H210V262.5H223.125V249.375Z" fill="#EBE8E8"/>
<path d="M236.25 249.375H223.125V262.5H236.25V249.375Z" fill="#282222"/>
<path d="M249.375 249.375H236.25V262.5H249.375V249.375Z" fill="#EBE8E8"/>
<path d="M262.5 249.375H249.375V262.5H262.5V249.375Z" fill="#EBE8E8"/>
<path d="M275.625 249.375H262.5V262.5H275.625V249.375Z" fill="#EBE8E8"/>
<path d="M288.75 249.375H275.625V262.5H288.75V249.375Z" fill="#EBE8E8"/>
<path d="M301.875 249.375H288.75V262.5H301.875V249.375Z" fill="#EBE8E8"/>
<path d="M315 249.375H301.875V262.5H315V249.375Z" fill="#EBE8E8"/>
<path d="M328.125 249.375H315V262.5H328.125V249.375Z" fill="#EBE8E8"/>
<path d="M341.25 249.375H328.125V262.5H341.25V249.375Z" fill="#282222"/>
<path d="M354.375 249.375H341.25V262.5H354.375V249.375Z" fill="#282222"/>
<path d="M367.5 249.375H354.375V262.5H367.5V249.375Z" fill="#EBE8E8"/>
<path d="M380.625 249.375H367.5V262.5H380.625V249.375Z" fill="#EBE8E8"/>
<path d="M393.75 249.375H380.625V262.5H393.75V249.375Z" fill="#EBE8E8"/>
<path d="M406.875 249.375H393.75V262.5H406.875V249.375Z" fill="#EBE8E8"/>
<path d="M420 249.375H406.875V262.5H420V249.375Z" fill="#C5C5C5"/>
<path d="M13.125 262.5H0V275.625H13.125V262.5Z" fill="#C5C5C5"/>
<path d="M26.25 262.5H13.125V275.625H26.25V262.5Z" fill="#EBE8E8"/>
<path d="M39.375 262.5H26.25V275.625H39.375V262.5Z" fill="#EBE8E8"/>
<path d="M52.5 262.5H39.375V275.625H52.5V262.5Z" fill="#EBE8E8"/>
<path d="M65.625 262.5H52.5V275.625H65.625V262.5Z" fill="#EBE8E8"/>
<path d="M78.75 262.5H65.625V275.625H78.75V262.5Z" fill="#EBE8E8"/>
<path d="M91.875 262.5H78.75V275.625H91.875V262.5Z" fill="#EBE8E8"/>
<path d="M105 262.5H91.875V275.625H105V262.5Z" fill="#EBE8E8"/>
<path d="M118.125 262.5H105V275.625H118.125V262.5Z" fill="#EBE8E8"/>
<path d="M131.25 262.5H118.125V275.625H131.25V262.5Z" fill="#EBE8E8"/>
<path d="M144.375 262.5H131.25V275.625H144.375V262.5Z" fill="#EBE8E8"/>
<path d="M157.5 262.5H144.375V275.625H157.5V262.5Z" fill="#EBE8E8"/>
<path d="M170.625 262.5H157.5V275.625H170.625V262.5Z" fill="#EBE8E8"/>
<path d="M183.75 262.5H170.625V275.625H183.75V262.5Z" fill="#EBE8E8"/>
<path d="M196.875 262.5H183.75V275.625H196.875V262.5Z" fill="#EBE8E8"/>
<path d="M210 262.5H196.875V275.625H210V262.5Z" fill="#EBE8E8"/>
<path d="M223.125 262.5H210V275.625H223.125V262.5Z" fill="#282222"/>
<path d="M236.25 262.5H223.125V275.625H236.25V262.5Z" fill="#282222"/>
<path d="M249.375 262.5H236.25V275.625H249.375V262.5Z" fill="#EBE8E8"/>
<path d="M262.5 262.5H249.375V275.625H262.5V262.5Z" fill="#EBE8E8"/>
<path d="M275.625 262.5H262.5V275.625H275.625V262.5Z" fill="#EBE8E8"/>
<path d="M288.75 262.5H275.625V275.625H288.75V262.5Z" fill="#EBE8E8"/>
<path d="M301.875 262.5H288.75V275.625H301.875V262.5Z" fill="#EBE8E8"/>
<path d="M315 262.5H301.875V275.625H315V262.5Z" fill="#EBE8E8"/>
<path d="M328.125 262.5H315V275.625H328.125V262.5Z" fill="#EBE8E8"/>
<path d="M341.25 262.5H328.125V275.625H341.25V262.5Z" fill="#282222"/>
<path d="M354.375 262.5H341.25V275.625H354.375V262.5Z" fill="#282222"/>
<path d="M367.5 262.5H354.375V275.625H367.5V262.5Z" fill="#EBE8E8"/>
<path d="M380.625 262.5H367.5V275.625H380.625V262.5Z" fill="#EBE8E8"/>
<path d="M393.75 262.5H380.625V275.625H393.75V262.5Z" fill="#EBE8E8"/>
<path d="M406.875 262.5H393.75V275.625H406.875V262.5Z" fill="#EBE8E8"/>
<path d="M420 262.5H406.875V275.625H420V262.5Z" fill="#C5C5C5"/>
<path d="M13.125 275.625H0V288.75H13.125V275.625Z" fill="#C5C5C5"/>
<path d="M26.25 275.625H13.125V288.75H26.25V275.625Z" fill="#F0F0F0"/>
<path d="M39.375 275.625H26.25V288.75H39.375V275.625Z" fill="#EBE8E8"/>
<path d="M52.5 275.625H39.375V288.75H52.5V275.625Z" fill="#EBE8E8"/>
<path d="M65.625 275.625H52.5V288.75H65.625V275.625Z" fill="#EBE8E8"/>
<path d="M78.75 275.625H65.625V288.75H78.75V275.625Z" fill="#EBE8E8"/>
<path d="M91.875 275.625H78.75V288.75H91.875V275.625Z" fill="#EBE8E8"/>
<path d="M105 275.625H91.875V288.75H105V275.625Z" fill="#EBE8E8"/>
<path d="M118.125 275.625H105V288.75H118.125V275.625Z" fill="#EBE8E8"/>
<path d="M131.25 275.625H118.125V288.75H131.25V275.625Z" fill="#EBE8E8"/>
<path d="M144.375 275.625H131.25V288.75H144.375V275.625Z" fill="#EBE8E8"/>
<path d="M157.5 275.625H144.375V288.75H157.5V275.625Z" fill="#EBE8E8"/>
<path d="M170.625 275.625H157.5V288.75H170.625V275.625Z" fill="#EBE8E8"/>
<path d="M183.75 275.625H170.625V288.75H183.75V275.625Z" fill="#EBE8E8"/>
<path d="M196.875 275.625H183.75V288.75H196.875V275.625Z" fill="#EBE8E8"/>
<path d="M210 275.625H196.875V288.75H210V275.625Z" fill="#282222"/>
<path d="M223.125 275.625H210V288.75H223.125V275.625Z" fill="#282222"/>
<path d="M236.25 275.625H223.125V288.75H236.25V275.625Z" fill="#282222"/>
<path d="M249.375 275.625H236.25V288.75H249.375V275.625Z" fill="#EBE8E8"/>
<path d="M262.5 275.625H249.375V288.75H262.5V275.625Z" fill="#EBE8E8"/>
<path d="M275.625 275.625H262.5V288.75H275.625V275.625Z" fill="#EBE8E8"/>
<path d="M288.75 275.625H275.625V288.75H288.75V275.625Z" fill="#EBE8E8"/>
<path d="M301.875 275.625H288.75V288.75H301.875V275.625Z" fill="#EBE8E8"/>
<path d="M315 275.625H301.875V288.75H315V275.625Z" fill="#EBE8E8"/>
<path d="M328.125 275.625H315V288.75H328.125V275.625Z" fill="#EBE8E8"/>
<path d="M341.25 275.625H328.125V288.75H341.25V275.625Z" fill="#282222"/>
<path d="M354.375 275.625H341.25V288.75H354.375V275.625Z" fill="#282222"/>
<path d="M367.5 275.625H354.375V288.75H367.5V275.625Z" fill="#EBE8E8"/>
<path d="M380.625 275.625H367.5V288.75H380.625V275.625Z" fill="#EBE8E8"/>
<path d="M393.75 275.625H380.625V288.75H393.75V275.625Z" fill="#EBE8E8"/>
<path d="M406.875 275.625H393.75V288.75H406.875V275.625Z" fill="#EBE8E8"/>
<path d="M420 275.625H406.875V288.75H420V275.625Z" fill="#C5C5C5"/>
<path d="M13.125 288.75H0V301.875H13.125V288.75Z" fill="#C5C5C5"/>
<path d="M26.25 288.75H13.125V301.875H26.25V288.75Z" fill="#F0F0F0"/>
<path d="M39.375 288.75H26.25V301.875H39.375V288.75Z" fill="#EBE8E8"/>
<path d="M52.5 288.75H39.375V301.875H52.5V288.75Z" fill="#EBE8E8"/>
<path d="M65.625 288.75H52.5V301.875H65.625V288.75Z" fill="#EBE8E8"/>
<path d="M78.75 288.75H65.625V301.875H78.75V288.75Z" fill="#EBE8E8"/>
<path d="M91.875 288.75H78.75V301.875H91.875V288.75Z" fill="#EBE8E8"/>
<path d="M105 288.75H91.875V301.875H105V288.75Z" fill="#EBE8E8"/>
<path d="M118.125 288.75H105V301.875H118.125V288.75Z" fill="#EBE8E8"/>
<path d="M131.25 288.75H118.125V301.875H131.25V288.75Z" fill="#EBE8E8"/>
<path d="M144.375 288.75H131.25V301.875H144.375V288.75Z" fill="#EBE8E8"/>
<path d="M157.5 288.75H144.375V301.875H157.5V288.75Z" fill="#EBE8E8"/>
<path d="M170.625 288.75H157.5V301.875H170.625V288.75Z" fill="#EBE8E8"/>
<path d="M183.75 288.75H170.625V301.875H183.75V288.75Z" fill="#EBE8E8"/>
<path d="M196.875 288.75H183.75V301.875H196.875V288.75Z" fill="#282222"/>
<path d="M210 288.75H196.875V301.875H210V288.75Z" fill="#282222"/>
<path d="M223.125 288.75H210V301.875H223.125V288.75Z" fill="#282222"/>
<path d="M236.25 288.75H223.125V301.875H236.25V288.75Z" fill="#282222"/>
<path d="M249.375 288.75H236.25V301.875H249.375V288.75Z" fill="#282222"/>
<path d="M262.5 288.75H249.375V301.875H262.5V288.75Z" fill="#282222"/>
<path d="M275.625 288.75H262.5V301.875H275.625V288.75Z" fill="#282222"/>
<path d="M288.75 288.75H275.625V301.875H288.75V288.75Z" fill="#282222"/>
<path d="M301.875 288.75H288.75V301.875H301.875V288.75Z" fill="#282222"/>
<path d="M315 288.75H301.875V301.875H315V288.75Z" fill="#282222"/>
<path d="M328.125 288.75H315V301.875H328.125V288.75Z" fill="#282222"/>
<path d="M341.25 288.75H328.125V301.875H341.25V288.75Z" fill="#282222"/>
<path d="M354.375 288.75H341.25V301.875H354.375V288.75Z" fill="#282222"/>
<path d="M367.5 288.75H354.375V301.875H367.5V288.75Z" fill="#EBE8E8"/>
<path d="M380.625 288.75H367.5V301.875H380.625V288.75Z" fill="#EBE8E8"/>
<path d="M393.75 288.75H380.625V301.875H393.75V288.75Z" fill="#EBE8E8"/>
<path d="M406.875 288.75H393.75V301.875H406.875V288.75Z" fill="#EBE8E8"/>
<path d="M420 288.75H406.875V301.875H420V288.75Z" fill="#C5C5C5"/>
<path d="M13.125 301.875H0V315H13.125V301.875Z" fill="#C5C5C5"/>
<path d="M26.25 301.875H13.125V315H26.25V301.875Z" fill="#F0F0F0"/>
<path d="M39.375 301.875H26.25V315H39.375V301.875Z" fill="#EBE8E8"/>
<path d="M52.5 301.875H39.375V315H52.5V301.875Z" fill="#EBE8E8"/>
<path d="M65.625 301.875H52.5V315H65.625V301.875Z" fill="#EBE8E8"/>
<path d="M78.75 301.875H65.625V315H78.75V301.875Z" fill="#EBE8E8"/>
<path d="M91.875 301.875H78.75V315H91.875V301.875Z" fill="#EBE8E8"/>
<path d="M105 301.875H91.875V315H105V301.875Z" fill="#EBE8E8"/>
<path d="M118.125 301.875H105V315H118.125V301.875Z" fill="#EBE8E8"/>
<path d="M131.25 301.875H118.125V315H131.25V301.875Z" fill="#EBE8E8"/>
<path d="M144.375 301.875H131.25V315H144.375V301.875Z" fill="#EBE8E8"/>
<path d="M157.5 301.875H144.375V315H157.5V301.875Z" fill="#EBE8E8"/>
<path d="M170.625 301.875H157.5V315H170.625V301.875Z" fill="#EBE8E8"/>
<path d="M183.75 301.875H170.625V315H183.75V301.875Z" fill="#EBE8E8"/>
<path d="M196.875 301.875H183.75V315H196.875V301.875Z" fill="#282222"/>
<path d="M210 301.875H196.875V315H210V301.875Z" fill="#282222"/>
<path d="M223.125 301.875H210V315H223.125V301.875Z" fill="#282222"/>
<path d="M236.25 301.875H223.125V315H236.25V301.875Z" fill="#282222"/>
<path d="M249.375 301.875H236.25V315H249.375V301.875Z" fill="#282222"/>
<path d="M262.5 301.875H249.375V315H262.5V301.875Z" fill="#282222"/>
<path d="M275.625 301.875H262.5V315H275.625V301.875Z" fill="#282222"/>
<path d="M288.75 301.875H275.625V315H288.75V301.875Z" fill="#282222"/>
<path d="M301.875 301.875H288.75V315H301.875V301.875Z" fill="#282222"/>
<path d="M315 301.875H301.875V315H315V301.875Z" fill="#282222"/>
<path d="M328.125 301.875H315V315H328.125V301.875Z" fill="#282222"/>
<path d="M341.25 301.875H328.125V315H341.25V301.875Z" fill="#282222"/>
<path d="M354.375 301.875H341.25V315H354.375V301.875Z" fill="#282222"/>
<path d="M367.5 301.875H354.375V315H367.5V301.875Z" fill="#EBE8E8"/>
<path d="M380.625 301.875H367.5V315H380.625V301.875Z" fill="#EBE8E8"/>
<path d="M393.75 301.875H380.625V315H393.75V301.875Z" fill="#EBE8E8"/>
<path d="M406.875 301.875H393.75V315H406.875V301.875Z" fill="#EBE8E8"/>
<path d="M420 301.875H406.875V315H420V301.875Z" fill="#C5C5C5"/>
<path d="M13.125 315H0V328.125H13.125V315Z" fill="#C5C5C5"/>
<path d="M26.25 315H13.125V328.125H26.25V315Z" fill="#EBE8E8"/>
<path d="M39.375 315H26.25V328.125H39.375V315Z" fill="#EBE8E8"/>
<path d="M52.5 315H39.375V328.125H52.5V315Z" fill="#EBE8E8"/>
<path d="M65.625 315H52.5V328.125H65.625V315Z" fill="#EBE8E8"/>
<path d="M78.75 315H65.625V328.125H78.75V315Z" fill="#EBE8E8"/>
<path d="M91.875 315H78.75V328.125H91.875V315Z" fill="#EBE8E8"/>
<path d="M105 315H91.875V328.125H105V315Z" fill="#EBE8E8"/>
<path d="M118.125 315H105V328.125H118.125V315Z" fill="#EBE8E8"/>
<path d="M131.25 315H118.125V328.125H131.25V315Z" fill="#EBE8E8"/>
<path d="M144.375 315H131.25V328.125H144.375V315Z" fill="#EBE8E8"/>
<path d="M157.5 315H144.375V328.125H157.5V315Z" fill="#EBE8E8"/>
<path d="M170.625 315H157.5V328.125H170.625V315Z" fill="#EBE8E8"/>
<path d="M183.75 315H170.625V328.125H183.75V315Z" fill="#EBE8E8"/>
<path d="M196.875 315H183.75V328.125H196.875V315Z" fill="#EBE8E8"/>
<path d="M210 315H196.875V328.125H210V315Z" fill="#282222"/>
<path d="M223.125 315H210V328.125H223.125V315Z" fill="#282222"/>
<path d="M236.25 315H223.125V328.125H236.25V315Z" fill="#282222"/>
<path d="M249.375 315H236.25V328.125H249.375V315Z" fill="#EBE8E8"/>
<path d="M262.5 315H249.375V328.125H262.5V315Z" fill="#EBE8E8"/>
<path d="M275.625 315H262.5V328.125H275.625V315Z" fill="#EBE8E8"/>
<path d="M288.75 315H275.625V328.125H288.75V315Z" fill="#EBE8E8"/>
<path d="M301.875 315H288.75V328.125H301.875V315Z" fill="#EBE8E8"/>
<path d="M315 315H301.875V328.125H315V315Z" fill="#EBE8E8"/>
<path d="M328.125 315H315V328.125H328.125V315Z" fill="#EBE8E8"/>
<path d="M341.25 315H328.125V328.125H341.25V315Z" fill="#EBE8E8"/>
<path d="M354.375 315H341.25V328.125H354.375V315Z" fill="#EBE8E8"/>
<path d="M367.5 315H354.375V328.125H367.5V315Z" fill="#EBE8E8"/>
<path d="M380.625 315H367.5V328.125H380.625V315Z" fill="#EBE8E8"/>
<path d="M393.75 315H380.625V328.125H393.75V315Z" fill="#EBE8E8"/>
<path d="M406.875 315H393.75V328.125H406.875V315Z" fill="#EBE8E8"/>
<path d="M420 315H406.875V328.125H420V315Z" fill="#C5C5C5"/>
<path d="M13.125 328.125H0V341.25H13.125V328.125Z" fill="#C5C5C5"/>
<path d="M26.25 328.125H13.125V341.25H26.25V328.125Z" fill="#EBE8E8"/>
<path d="M39.375 328.125H26.25V341.25H39.375V328.125Z" fill="#EBE8E8"/>
<path d="M52.5 328.125H39.375V341.25H52.5V328.125Z" fill="#EBE8E8"/>
<path d="M65.625 328.125H52.5V341.25H65.625V328.125Z" fill="#EBE8E8"/>
<path d="M78.75 328.125H65.625V341.25H78.75V328.125Z" fill="#EBE8E8"/>
<path d="M91.875 328.125H78.75V341.25H91.875V328.125Z" fill="#EBE8E8"/>
<path d="M105 328.125H91.875V341.25H105V328.125Z" fill="#EBE8E8"/>
<path d="M118.125 328.125H105V341.25H118.125V328.125Z" fill="#EBE8E8"/>
<path d="M131.25 328.125H118.125V341.25H131.25V328.125Z" fill="#EBE8E8"/>
<path d="M144.375 328.125H131.25V341.25H144.375V328.125Z" fill="#EBE8E8"/>
<path d="M157.5 328.125H144.375V341.25H157.5V328.125Z" fill="#EBE8E8"/>
<path d="M170.625 328.125H157.5V341.25H170.625V328.125Z" fill="#EBE8E8"/>
<path d="M183.75 328.125H170.625V341.25H183.75V328.125Z" fill="#EBE8E8"/>
<path d="M196.875 328.125H183.75V341.25H196.875V328.125Z" fill="#EBE8E8"/>
<path d="M210 328.125H196.875V341.25H210V328.125Z" fill="#EBE8E8"/>
<path d="M223.125 328.125H210V341.25H223.125V328.125Z" fill="#282222"/>
<path d="M236.25 328.125H223.125V341.25H236.25V328.125Z" fill="#282222"/>
<path d="M249.375 328.125H236.25V341.25H249.375V328.125Z" fill="#EBE8E8"/>
<path d="M262.5 328.125H249.375V341.25H262.5V328.125Z" fill="#EBE8E8"/>
<path d="M275.625 328.125H262.5V341.25H275.625V328.125Z" fill="#EBE8E8"/>
<path d="M288.75 328.125H275.625V341.25H288.75V328.125Z" fill="#EBE8E8"/>
<path d="M301.875 328.125H288.75V341.25H301.875V328.125Z" fill="#EBE8E8"/>
<path d="M315 328.125H301.875V341.25H315V328.125Z" fill="#EBE8E8"/>
<path d="M328.125 328.125H315V341.25H328.125V328.125Z" fill="#EBE8E8"/>
<path d="M341.25 328.125H328.125V341.25H341.25V328.125Z" fill="#EBE8E8"/>
<path d="M354.375 328.125H341.25V341.25H354.375V328.125Z" fill="#EBE8E8"/>
<path d="M367.5 328.125H354.375V341.25H367.5V328.125Z" fill="#EBE8E8"/>
<path d="M380.625 328.125H367.5V341.25H380.625V328.125Z" fill="#EBE8E8"/>
<path d="M393.75 328.125H380.625V341.25H393.75V328.125Z" fill="#EBE8E8"/>
<path d="M406.875 328.125H393.75V341.25H406.875V328.125Z" fill="#EBE8E8"/>
<path d="M420 328.125H406.875V341.25H420V328.125Z" fill="#C5C5C5"/>
<path d="M13.125 341.25H0V354.375H13.125V341.25Z" fill="#C5C5C5"/>
<path d="M26.25 341.25H13.125V354.375H26.25V341.25Z" fill="#EBE8E8"/>
<path d="M39.375 341.25H26.25V354.375H39.375V341.25Z" fill="#EBE8E8"/>
<path d="M52.5 341.25H39.375V354.375H52.5V341.25Z" fill="#EBE8E8"/>
<path d="M65.625 341.25H52.5V354.375H65.625V341.25Z" fill="#EBE8E8"/>
<path d="M78.75 341.25H65.625V354.375H78.75V341.25Z" fill="#EBE8E8"/>
<path d="M91.875 341.25H78.75V354.375H91.875V341.25Z" fill="#EBE8E8"/>
<path d="M105 341.25H91.875V354.375H105V341.25Z" fill="#EBE8E8"/>
<path d="M118.125 341.25H105V354.375H118.125V341.25Z" fill="#EBE8E8"/>
<path d="M131.25 341.25H118.125V354.375H131.25V341.25Z" fill="#EBE8E8"/>
<path d="M144.375 341.25H131.25V354.375H144.375V341.25Z" fill="#EBE8E8"/>
<path d="M157.5 341.25H144.375V354.375H157.5V341.25Z" fill="#EBE8E8"/>
<path d="M170.625 341.25H157.5V354.375H170.625V341.25Z" fill="#EBE8E8"/>
<path d="M183.75 341.25H170.625V354.375H183.75V341.25Z" fill="#EBE8E8"/>
<path d="M196.875 341.25H183.75V354.375H196.875V341.25Z" fill="#EBE8E8"/>
<path d="M210 341.25H196.875V354.375H210V341.25Z" fill="#EBE8E8"/>
<path d="M223.125 341.25H210V354.375H223.125V341.25Z" fill="#EBE8E8"/>
<path d="M236.25 341.25H223.125V354.375H236.25V341.25Z" fill="#282222"/>
<path d="M249.375 341.25H236.25V354.375H249.375V341.25Z" fill="#EBE8E8"/>
<path d="M262.5 341.25H249.375V354.375H262.5V341.25Z" fill="#EBE8E8"/>
<path d="M275.625 341.25H262.5V354.375H275.625V341.25Z" fill="#EBE8E8"/>
<path d="M288.75 341.25H275.625V354.375H288.75V341.25Z" fill="#EBE8E8"/>
<path d="M301.875 341.25H288.75V354.375H301.875V341.25Z" fill="#EBE8E8"/>
<path d="M315 341.25H301.875V354.375H315V341.25Z" fill="#EBE8E8"/>
<path d="M328.125 341.25H315V354.375H328.125V341.25Z" fill="#EBE8E8"/>
<path d="M341.25 341.25H328.125V354.375H341.25V341.25Z" fill="#EBE8E8"/>
<path d="M354.375 341.25H341.25V354.375H354.375V341.25Z" fill="#EBE8E8"/>
<path d="M367.5 341.25H354.375V354.375H367.5V341.25Z" fill="#EBE8E8"/>
<path d="M380.625 341.25H367.5V354.375H380.625V341.25Z" fill="#EBE8E8"/>
<path d="M393.75 341.25H380.625V354.375H393.75V341.25Z" fill="#EBE8E8"/>
<path d="M406.875 341.25H393.75V354.375H406.875V341.25Z" fill="#F0F0F0"/>
<path d="M420 341.25H406.875V354.375H420V341.25Z" fill="#C5C5C5"/>
<path d="M13.125 354.375H0V367.5H13.125V354.375Z" fill="#C5C5C5"/>
<path d="M26.25 354.375H13.125V367.5H26.25V354.375Z" fill="#F0F0F0"/>
<path d="M39.375 354.375H26.25V367.5H39.375V354.375Z" fill="#EBE8E8"/>
<path d="M52.5 354.375H39.375V367.5H52.5V354.375Z" fill="#EBE8E8"/>
<path d="M65.625 354.375H52.5V367.5H65.625V354.375Z" fill="#EBE8E8"/>
<path d="M78.75 354.375H65.625V367.5H78.75V354.375Z" fill="#EBE8E8"/>
<path d="M91.875 354.375H78.75V367.5H91.875V354.375Z" fill="#EBE8E8"/>
<path d="M105 354.375H91.875V367.5H105V354.375Z" fill="#EBE8E8"/>
<path d="M118.125 354.375H105V367.5H118.125V354.375Z" fill="#EBE8E8"/>
<path d="M131.25 354.375H118.125V367.5H131.25V354.375Z" fill="#EBE8E8"/>
<path d="M144.375 354.375H131.25V367.5H144.375V354.375Z" fill="#EBE8E8"/>
<path d="M157.5 354.375H144.375V367.5H157.5V354.375Z" fill="#EBE8E8"/>
<path d="M170.625 354.375H157.5V367.5H170.625V354.375Z" fill="#EBE8E8"/>
<path d="M183.75 354.375H170.625V367.5H183.75V354.375Z" fill="#EBE8E8"/>
<path d="M196.875 354.375H183.75V367.5H196.875V354.375Z" fill="#EBE8E8"/>
<path d="M210 354.375H196.875V367.5H210V354.375Z" fill="#EBE8E8"/>
<path d="M223.125 354.375H210V367.5H223.125V354.375Z" fill="#EBE8E8"/>
<path d="M236.25 354.375H223.125V367.5H236.25V354.375Z" fill="#EBE8E8"/>
<path d="M249.375 354.375H236.25V367.5H249.375V354.375Z" fill="#EBE8E8"/>
<path d="M262.5 354.375H249.375V367.5H262.5V354.375Z" fill="#EBE8E8"/>
<path d="M275.625 354.375H262.5V367.5H275.625V354.375Z" fill="#EBE8E8"/>
<path d="M288.75 354.375H275.625V367.5H288.75V354.375Z" fill="#EBE8E8"/>
<path d="M301.875 354.375H288.75V367.5H301.875V354.375Z" fill="#EBE8E8"/>
<path d="M315 354.375H301.875V367.5H315V354.375Z" fill="#EBE8E8"/>
<path d="M328.125 354.375H315V367.5H328.125V354.375Z" fill="#EBE8E8"/>
<path d="M341.25 354.375H328.125V367.5H341.25V354.375Z" fill="#EBE8E8"/>
<path d="M354.375 354.375H341.25V367.5H354.375V354.375Z" fill="#EBE8E8"/>
<path d="M367.5 354.375H354.375V367.5H367.5V354.375Z" fill="#EBE8E8"/>
<path d="M380.625 354.375H367.5V367.5H380.625V354.375Z" fill="#EBE8E8"/>
<path d="M393.75 354.375H380.625V367.5H393.75V354.375Z" fill="#EBE8E8"/>
<path d="M406.875 354.375H393.75V367.5H406.875V354.375Z" fill="#F0F0F0"/>
<path d="M420 354.375H406.875V367.5H420V354.375Z" fill="#C5C5C5"/>
<path d="M13.125 367.5H0V380.625H13.125V367.5Z" fill="#C5C5C5"/>
<path d="M26.25 367.5H13.125V380.625H26.25V367.5Z" fill="white"/>
<path d="M39.375 367.5H26.25V380.625H39.375V367.5Z" fill="#EBE8E8"/>
<path d="M52.5 367.5H39.375V380.625H52.5V367.5Z" fill="#EBE8E8"/>
<path d="M65.625 367.5H52.5V380.625H65.625V367.5Z" fill="#EBE8E8"/>
<path d="M78.75 367.5H65.625V380.625H78.75V367.5Z" fill="#EBE8E8"/>
<path d="M91.875 367.5H78.75V380.625H91.875V367.5Z" fill="#EBE8E8"/>
<path d="M105 367.5H91.875V380.625H105V367.5Z" fill="#EBE8E8"/>
<path d="M118.125 367.5H105V380.625H118.125V367.5Z" fill="#EBE8E8"/>
<path d="M131.25 367.5H118.125V380.625H131.25V367.5Z" fill="#EBE8E8"/>
<path d="M144.375 367.5H131.25V380.625H144.375V367.5Z" fill="#EBE8E8"/>
<path d="M157.5 367.5H144.375V380.625H157.5V367.5Z" fill="#EBE8E8"/>
<path d="M170.625 367.5H157.5V380.625H170.625V367.5Z" fill="#EBE8E8"/>
<path d="M183.75 367.5H170.625V380.625H183.75V367.5Z" fill="#EBE8E8"/>
<path d="M196.875 367.5H183.75V380.625H196.875V367.5Z" fill="#EBE8E8"/>
<path d="M210 367.5H196.875V380.625H210V367.5Z" fill="#EBE8E8"/>
<path d="M223.125 367.5H210V380.625H223.125V367.5Z" fill="#EBE8E8"/>
<path d="M236.25 367.5H223.125V380.625H236.25V367.5Z" fill="#EBE8E8"/>
<path d="M249.375 367.5H236.25V380.625H249.375V367.5Z" fill="#EBE8E8"/>
<path d="M262.5 367.5H249.375V380.625H262.5V367.5Z" fill="#EBE8E8"/>
<path d="M275.625 367.5H262.5V380.625H275.625V367.5Z" fill="#EBE8E8"/>
<path d="M288.75 367.5H275.625V380.625H288.75V367.5Z" fill="#EBE8E8"/>
<path d="M301.875 367.5H288.75V380.625H301.875V367.5Z" fill="#EBE8E8"/>
<path d="M315 367.5H301.875V380.625H315V367.5Z" fill="#EBE8E8"/>
<path d="M328.125 367.5H315V380.625H328.125V367.5Z" fill="#EBE8E8"/>
<path d="M341.25 367.5H328.125V380.625H341.25V367.5Z" fill="#EBE8E8"/>
<path d="M354.375 367.5H341.25V380.625H354.375V367.5Z" fill="#EBE8E8"/>
<path d="M367.5 367.5H354.375V380.625H367.5V367.5Z" fill="#EBE8E8"/>
<path d="M380.625 367.5H367.5V380.625H380.625V367.5Z" fill="#EBE8E8"/>
<path d="M393.75 367.5H380.625V380.625H393.75V367.5Z" fill="#EBE8E8"/>
<path d="M406.875 367.5H393.75V380.625H406.875V367.5Z" fill="white"/>
<path d="M420 367.5H406.875V380.625H420V367.5Z" fill="#C5C5C5"/>
<path d="M13.125 380.625H0V393.75H13.125V380.625Z" fill="#A0A0A0"/>
<path d="M26.25 380.625H13.125V393.75H26.25V380.625Z" fill="#C5C5C5"/>
<path d="M39.375 380.625H26.25V393.75H39.375V380.625Z" fill="white"/>
<path d="M52.5 380.625H39.375V393.75H52.5V380.625Z" fill="white"/>
<path d="M65.625 380.625H52.5V393.75H65.625V380.625Z" fill="#F0F0F0"/>
<path d="M78.75 380.625H65.625V393.75H78.75V380.625Z" fill="white"/>
<path d="M91.875 380.625H78.75V393.75H91.875V380.625Z" fill="#F0F0F0"/>
<path d="M105 380.625H91.875V393.75H105V380.625Z" fill="#F0F0F0"/>
<path d="M118.125 380.625H105V393.75H118.125V380.625Z" fill="white"/>
<path d="M131.25 380.625H118.125V393.75H131.25V380.625Z" fill="white"/>
<path d="M144.375 380.625H131.25V393.75H144.375V380.625Z" fill="#F0F0F0"/>
<path d="M157.5 380.625H144.375V393.75H157.5V380.625Z" fill="#F0F0F0"/>
<path d="M170.625 380.625H157.5V393.75H170.625V380.625Z" fill="white"/>
<path d="M183.75 380.625H170.625V393.75H183.75V380.625Z" fill="white"/>
<path d="M196.875 380.625H183.75V393.75H196.875V380.625Z" fill="white"/>
<path d="M210 380.625H196.875V393.75H210V380.625Z" fill="#F0F0F0"/>
<path d="M223.125 380.625H210V393.75H223.125V380.625Z" fill="#F0F0F0"/>
<path d="M236.25 380.625H223.125V393.75H236.25V380.625Z" fill="white"/>
<path d="M249.375 380.625H236.25V393.75H249.375V380.625Z" fill="#F0F0F0"/>
<path d="M262.5 380.625H249.375V393.75H262.5V380.625Z" fill="#F0F0F0"/>
<path d="M275.625 380.625H262.5V393.75H275.625V380.625Z" fill="white"/>
<path d="M288.75 380.625H275.625V393.75H288.75V380.625Z" fill="white"/>
<path d="M301.875 380.625H288.75V393.75H301.875V380.625Z" fill="white"/>
<path d="M315 380.625H301.875V393.75H315V380.625Z" fill="#F0F0F0"/>
<path d="M328.125 380.625H315V393.75H328.125V380.625Z" fill="#F0F0F0"/>
<path d="M341.25 380.625H328.125V393.75H341.25V380.625Z" fill="#F0F0F0"/>
<path d="M354.375 380.625H341.25V393.75H354.375V380.625Z" fill="white"/>
<path d="M367.5 380.625H354.375V393.75H367.5V380.625Z" fill="#F0F0F0"/>
<path d="M380.625 380.625H367.5V393.75H380.625V380.625Z" fill="white"/>
<path d="M393.75 380.625H380.625V393.75H393.75V380.625Z" fill="white"/>
<path d="M406.875 380.625H393.75V393.75H406.875V380.625Z" fill="#C5C5C5"/>
<path d="M420 380.625H406.875V393.75H420V380.625Z" fill="#A0A0A0"/>
<path d="M13.125 393.75H0V406.875H13.125V393.75Z" fill="#A0A0A0"/>
<path d="M26.25 393.75H13.125V406.875H26.25V393.75Z" fill="#A0A0A0"/>
<path d="M39.375 393.75H26.25V406.875H39.375V393.75Z" fill="#C5C5C5"/>
<path d="M52.5 393.75H39.375V406.875H52.5V393.75Z" fill="#C5C5C5"/>
<path d="M65.625 393.75H52.5V406.875H65.625V393.75Z" fill="#C5C5C5"/>
<path d="M78.75 393.75H65.625V406.875H78.75V393.75Z" fill="#C5C5C5"/>
<path d="M91.875 393.75H78.75V406.875H91.875V393.75Z" fill="#C5C5C5"/>
<path d="M105 393.75H91.875V406.875H105V393.75Z" fill="#C5C5C5"/>
<path d="M118.125 393.75H105V406.875H118.125V393.75Z" fill="#C5C5C5"/>
<path d="M131.25 393.75H118.125V406.875H131.25V393.75Z" fill="#C5C5C5"/>
<path d="M144.375 393.75H131.25V406.875H144.375V393.75Z" fill="#C5C5C5"/>
<path d="M157.5 393.75H144.375V406.875H157.5V393.75Z" fill="#C5C5C5"/>
<path d="M170.625 393.75H157.5V406.875H170.625V393.75Z" fill="#C5C5C5"/>
<path d="M183.75 393.75H170.625V406.875H183.75V393.75Z" fill="#C5C5C5"/>
<path d="M196.875 393.75H183.75V406.875H196.875V393.75Z" fill="#C5C5C5"/>
<path d="M210 393.75H196.875V406.875H210V393.75Z" fill="#C5C5C5"/>
<path d="M223.125 393.75H210V406.875H223.125V393.75Z" fill="#C5C5C5"/>
<path d="M236.25 393.75H223.125V406.875H236.25V393.75Z" fill="#C5C5C5"/>
<path d="M249.375 393.75H236.25V406.875H249.375V393.75Z" fill="#C5C5C5"/>
<path d="M262.5 393.75H249.375V406.875H262.5V393.75Z" fill="#C5C5C5"/>
<path d="M275.625 393.75H262.5V406.875H275.625V393.75Z" fill="#C5C5C5"/>
<path d="M288.75 393.75H275.625V406.875H288.75V393.75Z" fill="#C5C5C5"/>
<path d="M301.875 393.75H288.75V406.875H301.875V393.75Z" fill="#C5C5C5"/>
<path d="M315 393.75H301.875V406.875H315V393.75Z" fill="#C5C5C5"/>
<path d="M328.125 393.75H315V406.875H328.125V393.75Z" fill="#C5C5C5"/>
<path d="M341.25 393.75H328.125V406.875H341.25V393.75Z" fill="#C5C5C5"/>
<path d="M354.375 393.75H341.25V406.875H354.375V393.75Z" fill="#C5C5C5"/>
<path d="M367.5 393.75H354.375V406.875H367.5V393.75Z" fill="#C5C5C5"/>
<path d="M380.625 393.75H367.5V406.875H380.625V393.75Z" fill="#C5C5C5"/>
<path d="M393.75 393.75H380.625V406.875H393.75V393.75Z" fill="#C5C5C5"/>
<path d="M406.875 393.75H393.75V406.875H406.875V393.75Z" fill="#A0A0A0"/>
<path d="M420 393.75H406.875V406.875H420V393.75Z" fill="#A0A0A0"/>
<path d="M13.125 406.875H0V420H13.125V406.875Z" fill="#5A5A5A"/>
<path d="M26.25 406.875H13.125V420H26.25V406.875Z" fill="#A0A0A0"/>
<path d="M39.375 406.875H26.25V420H39.375V406.875Z" fill="#A0A0A0"/>
<path d="M52.5 406.875H39.375V420H52.5V406.875Z" fill="#A0A0A0"/>
<path d="M65.625 406.875H52.5V420H65.625V406.875Z" fill="#A0A0A0"/>
<path d="M78.75 406.875H65.625V420H78.75V406.875Z" fill="#A0A0A0"/>
<path d="M91.875 406.875H78.75V420H91.875V406.875Z" fill="#A0A0A0"/>
<path d="M105 406.875H91.875V420H105V406.875Z" fill="#A0A0A0"/>
<path d="M118.125 406.875H105V420H118.125V406.875Z" fill="#A0A0A0"/>
<path d="M131.25 406.875H118.125V420H131.25V406.875Z" fill="#A0A0A0"/>
<path d="M144.375 406.875H131.25V420H144.375V406.875Z" fill="#A0A0A0"/>
<path d="M157.5 406.875H144.375V420H157.5V406.875Z" fill="#A0A0A0"/>
<path d="M170.625 406.875H157.5V420H170.625V406.875Z" fill="#A0A0A0"/>
<path d="M183.75 406.875H170.625V420H183.75V406.875Z" fill="#A0A0A0"/>
<path d="M196.875 406.875H183.75V420H196.875V406.875Z" fill="#A0A0A0"/>
<path d="M210 406.875H196.875V420H210V406.875Z" fill="#A0A0A0"/>
<path d="M223.125 406.875H210V420H223.125V406.875Z" fill="#A0A0A0"/>
<path d="M236.25 406.875H223.125V420H236.25V406.875Z" fill="#A0A0A0"/>
<path d="M249.375 406.875H236.25V420H249.375V406.875Z" fill="#A0A0A0"/>
<path d="M262.5 406.875H249.375V420H262.5V406.875Z" fill="#A0A0A0"/>
<path d="M275.625 406.875H262.5V420H275.625V406.875Z" fill="#A0A0A0"/>
<path d="M288.75 406.875H275.625V420H288.75V406.875Z" fill="#A0A0A0"/>
<path d="M301.875 406.875H288.75V420H301.875V406.875Z" fill="#A0A0A0"/>
<path d="M315 406.875H301.875V420H315V406.875Z" fill="#A0A0A0"/>
<path d="M328.125 406.875H315V420H328.125V406.875Z" fill="#A0A0A0"/>
<path d="M341.25 406.875H328.125V420H341.25V406.875Z" fill="#A0A0A0"/>
<path d="M354.375 406.875H341.25V420H354.375V406.875Z" fill="#A0A0A0"/>
<path d="M367.5 406.875H354.375V420H367.5V406.875Z" fill="#A0A0A0"/>
<path d="M380.625 406.875H367.5V420H380.625V406.875Z" fill="#A0A0A0"/>
<path d="M393.75 406.875H380.625V420H393.75V406.875Z" fill="#A0A0A0"/>
<path d="M406.875 406.875H393.75V420H406.875V406.875Z" fill="#A0A0A0"/>
<path d="M420 406.875H406.875V420H420V406.875Z" fill="#5A5A5A"/>
<path d="M26.25 420H13.125V433.125H26.25V420Z" fill="#5A5A5A"/>
<path d="M39.375 420H26.25V433.125H39.375V420Z" fill="#A0A0A0"/>
<path d="M52.5 420H39.375V433.125H52.5V420Z" fill="#A0A0A0"/>
<path d="M65.625 420H52.5V433.125H65.625V420Z" fill="#A0A0A0"/>
<path d="M78.75 420H65.625V433.125H78.75V420Z" fill="#A0A0A0"/>
<path d="M91.875 420H78.75V433.125H91.875V420Z" fill="#A0A0A0"/>
<path d="M105 420H91.875V433.125H105V420Z" fill="#A0A0A0"/>
<path d="M118.125 420H105V433.125H118.125V420Z" fill="#A0A0A0"/>
<path d="M131.25 420H118.125V433.125H131.25V420Z" fill="#A0A0A0"/>
<path d="M144.375 420H131.25V433.125H144.375V420Z" fill="#A0A0A0"/>
<path d="M157.5 420H144.375V433.125H157.5V420Z" fill="#A0A0A0"/>
<path d="M170.625 420H157.5V433.125H170.625V420Z" fill="#A0A0A0"/>
<path d="M183.75 420H170.625V433.125H183.75V420Z" fill="#A0A0A0"/>
<path d="M196.875 420H183.75V433.125H196.875V420Z" fill="#A0A0A0"/>
<path d="M210 420H196.875V433.125H210V420Z" fill="#A0A0A0"/>
<path d="M223.125 420H210V433.125H223.125V420Z" fill="#A0A0A0"/>
<path d="M236.25 420H223.125V433.125H236.25V420Z" fill="#A0A0A0"/>
<path d="M249.375 420H236.25V433.125H249.375V420Z" fill="#A0A0A0"/>
<path d="M262.5 420H249.375V433.125H262.5V420Z" fill="#A0A0A0"/>
<path d="M275.625 420H262.5V433.125H275.625V420Z" fill="#A0A0A0"/>
<path d="M288.75 420H275.625V433.125H288.75V420Z" fill="#A0A0A0"/>
<path d="M301.875 420H288.75V433.125H301.875V420Z" fill="#A0A0A0"/>
<path d="M315 420H301.875V433.125H315V420Z" fill="#A0A0A0"/>
<path d="M328.125 420H315V433.125H328.125V420Z" fill="#A0A0A0"/>
<path d="M341.25 420H328.125V433.125H341.25V420Z" fill="#A0A0A0"/>
<path d="M354.375 420H341.25V433.125H354.375V420Z" fill="#A0A0A0"/>
<path d="M367.5 420H354.375V433.125H367.5V420Z" fill="#A0A0A0"/>
<path d="M380.625 420H367.5V433.125H380.625V420Z" fill="#A0A0A0"/>
<path d="M393.75 420H380.625V433.125H393.75V420Z" fill="#A0A0A0"/>
<path d="M406.875 420H393.75V433.125H406.875V420Z" fill="#5A5A5A"/>
<path d="M39.375 433.125H26.25V446.25H39.375V433.125Z" fill="#5A5A5A"/>
<path d="M52.5 433.125H39.375V446.25H52.5V433.125Z" fill="#5A5A5A"/>
<path d="M65.625 433.125H52.5V446.25H65.625V433.125Z" fill="#5A5A5A"/>
<path d="M78.75 433.125H65.625V446.25H78.75V433.125Z" fill="#5A5A5A"/>
<path d="M91.875 433.125H78.75V446.25H91.875V433.125Z" fill="#5A5A5A"/>
<path d="M105 433.125H91.875V446.25H105V433.125Z" fill="#5A5A5A"/>
<path d="M118.125 433.125H105V446.25H118.125V433.125Z" fill="#5A5A5A"/>
<path d="M131.25 433.125H118.125V446.25H131.25V433.125Z" fill="#5A5A5A"/>
<path d="M144.375 433.125H131.25V446.25H144.375V433.125Z" fill="#5A5A5A"/>
<path d="M157.5 433.125H144.375V446.25H157.5V433.125Z" fill="#5A5A5A"/>
<path d="M170.625 433.125H157.5V446.25H170.625V433.125Z" fill="#5A5A5A"/>
<path d="M183.75 433.125H170.625V446.25H183.75V433.125Z" fill="#5A5A5A"/>
<path d="M196.875 433.125H183.75V446.25H196.875V433.125Z" fill="#5A5A5A"/>
<path d="M210 433.125H196.875V446.25H210V433.125Z" fill="#5A5A5A"/>
<path d="M223.125 433.125H210V446.25H223.125V433.125Z" fill="#5A5A5A"/>
<path d="M236.25 433.125H223.125V446.25H236.25V433.125Z" fill="#5A5A5A"/>
<path d="M249.375 433.125H236.25V446.25H249.375V433.125Z" fill="#5A5A5A"/>
<path d="M262.5 433.125H249.375V446.25H262.5V433.125Z" fill="#5A5A5A"/>
<path d="M275.625 433.125H262.5V446.25H275.625V433.125Z" fill="#5A5A5A"/>
<path d="M288.75 433.125H275.625V446.25H288.75V433.125Z" fill="#5A5A5A"/>
<path d="M301.875 433.125H288.75V446.25H301.875V433.125Z" fill="#5A5A5A"/>
<path d="M315 433.125H301.875V446.25H315V433.125Z" fill="#5A5A5A"/>
<path d="M328.125 433.125H315V446.25H328.125V433.125Z" fill="#5A5A5A"/>
<path d="M341.25 433.125H328.125V446.25H341.25V433.125Z" fill="#5A5A5A"/>
<path d="M354.375 433.125H341.25V446.25H354.375V433.125Z" fill="#5A5A5A"/>
<path d="M367.5 433.125H354.375V446.25H367.5V433.125Z" fill="#5A5A5A"/>
<path d="M380.625 433.125H367.5V446.25H380.625V433.125Z" fill="#5A5A5A"/>
<path d="M393.75 433.125H380.625V446.25H393.75V433.125Z" fill="#5A5A5A"/>
</svg>
