<svg width="198" height="88" viewBox="0 0 198 88" fill="none" xmlns="http://www.w3.org/2000/svg">
<path d="M33 11H22V22H33V11Z" fill="black"/>
<path d="M33 33H22V44H33V33Z" fill="black"/>
<path d="M187 33H176V44H187V33Z" fill="black"/>
<path d="M55 11H44V22V33V44V55H33H22V66H33V77H44V88H55V77H66V66H77V55H66H55V44V33V22H66V11H55Z" fill="black"/>
<path d="M11 0H0V11V22V33V44H11V33H22V22H11V11V0Z" fill="black"/>
<path d="M198 11H187V22V33H198V22V11Z" fill="black"/>
<path d="M176 11H165V22V33H176V22V11Z" fill="black"/>
<path d="M132 0H121V11V22V33V44H132V33V22H143V33V44H154V33V22V11H143H132V0Z" fill="black"/>
<path d="M88 11H77V22V33V44H88H99H110V33H99H88V22H99H110V11H99H88Z" fill="black"/>
</svg>
