<svg width="396" height="176" viewBox="0 0 396 176" fill="none" xmlns="http://www.w3.org/2000/svg">
<path d="M21.9688 0H0V21.9688H21.9688V0Z" fill="black"/>
<path d="M263.625 0H241.656V21.9688H263.625V0Z" fill="black"/>
<path d="M21.9688 21.9688H0V43.9375H21.9688V21.9688Z" fill="black"/>
<path d="M65.9062 21.9688H43.9375V43.9375H65.9062V21.9688Z" fill="black"/>
<path d="M109.844 21.9688H87.875V43.9375H109.844V21.9688Z" fill="black"/>
<path d="M131.812 21.9688H109.844V43.9375H131.812V21.9688Z" fill="black"/>
<path d="M175.75 21.9688H153.781V43.9375H175.75V21.9688Z" fill="black"/>
<path d="M197.719 21.9688H175.75V43.9375H197.719V21.9688Z" fill="black"/>
<path d="M219.688 21.9688H197.719V43.9375H219.688V21.9688Z" fill="black"/>
<path d="M263.625 21.9688H241.656V43.9375H263.625V21.9688Z" fill="black"/>
<path d="M285.594 21.9688H263.625V43.9375H285.594V21.9688Z" fill="black"/>
<path d="M307.562 21.9688H285.594V43.9375H307.562V21.9688Z" fill="black"/>
<path d="M351.5 21.9688H329.531V43.9375H351.5V21.9688Z" fill="black"/>
<path d="M395.438 21.9688H373.469V43.9375H395.438V21.9688Z" fill="black"/>
<path d="M21.9688 43.9375H0V65.9062H21.9688V43.9375Z" fill="black"/>
<path d="M43.9375 43.9375H21.9688V65.9062H43.9375V43.9375Z" fill="black"/>
<path d="M109.844 43.9375H87.875V65.9062H109.844V43.9375Z" fill="black"/>
<path d="M175.75 43.9375H153.781V65.9062H175.75V43.9375Z" fill="black"/>
<path d="M263.625 43.9375H241.656V65.9062H263.625V43.9375Z" fill="black"/>
<path d="M307.562 43.9375H285.594V65.9062H307.562V43.9375Z" fill="black"/>
<path d="M351.5 43.9375H329.531V65.9062H351.5V43.9375Z" fill="black"/>
<path d="M395.438 43.9375H373.469V65.9062H395.438V43.9375Z" fill="black"/>
<path d="M21.9688 65.9062H0V87.875H21.9688V65.9062Z" fill="black"/>
<path d="M65.9062 65.9062H43.9375V87.875H65.9062V65.9062Z" fill="black"/>
<path d="M109.844 65.9062H87.875V87.875H109.844V65.9062Z" fill="black"/>
<path d="M175.75 65.9062H153.781V87.875H175.75V65.9062Z" fill="black"/>
<path d="M197.719 65.9062H175.75V87.875H197.719V65.9062Z" fill="black"/>
<path d="M219.688 65.9062H197.719V87.875H219.688V65.9062Z" fill="black"/>
<path d="M263.625 65.9062H241.656V87.875H263.625V65.9062Z" fill="black"/>
<path d="M307.562 65.9062H285.594V87.875H307.562V65.9062Z" fill="black"/>
<path d="M373.469 65.9062H351.5V87.875H373.469V65.9062Z" fill="black"/>
<path d="M109.844 87.875H87.875V109.844H109.844V87.875Z" fill="black"/>
<path d="M65.9062 109.844H43.9375V131.812H65.9062V109.844Z" fill="black"/>
<path d="M87.875 109.844H65.9062V131.812H87.875V109.844Z" fill="black"/>
<path d="M109.844 109.844H87.875V131.812H109.844V109.844Z" fill="black"/>
<path d="M131.812 109.844H109.844V131.812H131.812V109.844Z" fill="black"/>
<path d="M153.781 109.844H131.812V131.812H153.781V109.844Z" fill="black"/>
<path d="M87.875 131.812H65.9062V153.781H87.875V131.812Z" fill="black"/>
<path d="M109.844 131.812H87.875V153.781H109.844V131.812Z" fill="black"/>
<path d="M131.812 131.812H109.844V153.781H131.812V131.812Z" fill="black"/>
<path d="M109.844 153.781H87.875V175.75H109.844V153.781Z" fill="black"/>
</svg>
